<?xml version="1.0" encoding="utf-8"?>
<!-- Generator: Adobe Illustrator 17.0.0, SVG Export Plug-In . SVG Version: 6.00 Build 0)  -->
<!DOCTYPE svg PUBLIC "-//W3C//DTD SVG 1.1//EN" "http://www.w3.org/Graphics/SVG/1.1/DTD/svg11.dtd">
<svg version="1.1" id="Capa_1" xmlns="http://www.w3.org/2000/svg" xmlns:xlink="http://www.w3.org/1999/xlink" x="0px" y="0px"
	 width="200px" height="200px" viewBox="0 0 200 200" enable-background="new 0 0 200 200" xml:space="preserve">
<path fill="#0B0808" d="M99.897,197.688c-13.163,0-26.328-0.097-39.489,0.063c-3.641,0.044-6.12-0.973-8.471-3.959
	c-16.275-20.671-32.705-41.221-49.23-61.694c-2.465-3.054-3.047-6.085-2.216-9.711c6.012-26.213,12.01-52.43,17.973-78.654
	c0.599-2.634,1.963-4.386,4.446-5.574C47.638,26.324,72.343,14.441,97.017,2.495c2.512-1.216,4.682-1.007,7.085,0.156
	c24.532,11.866,49.075,23.711,73.654,35.48c2.673,1.28,3.999,3.165,4.637,5.989c5.851,25.909,11.76,51.805,17.719,77.69
	c0.919,3.99,0.376,7.217-2.362,10.601c-16.338,20.193-32.515,40.519-48.551,60.954c-2.559,3.261-5.294,4.449-9.313,4.393
	C126.559,197.573,113.227,197.688,99.897,197.688z M100.06,191.583c12.663,0,25.326-0.062,37.988,0.05
	c2.701,0.024,4.532-0.662,6.299-2.903c15.467-19.616,31.011-39.174,46.726-58.592c2.431-3.004,3.1-5.68,2.225-9.398
	c-5.709-24.253-11.272-48.541-16.744-72.849c-0.534-2.373-1.495-3.787-3.669-4.827c-23.251-11.122-46.473-22.303-69.673-33.532
	c-1.971-0.954-3.567-1.011-5.601-0.025c-23.194,11.241-46.43,22.396-69.685,33.508c-2.145,1.025-3.171,2.359-3.71,4.773
	c-5.536,24.803-11.17,49.585-16.996,74.321c-0.708,3.007-0.022,4.856,1.795,7.114c15.867,19.723,31.643,39.52,47.33,59.387
	c1.724,2.183,3.455,3.064,6.228,3.033C75.067,191.503,87.564,191.583,100.06,191.583z"/>
<path fill="#CB65FD" d="M100.06,191.583c-12.496,0-24.993-0.079-37.488,0.061c-2.773,0.031-4.504-0.85-6.228-3.033
	c-15.687-19.867-31.463-39.664-47.33-59.387c-1.816-2.258-2.503-4.107-1.795-7.114c5.827-24.736,11.461-49.518,16.996-74.321
	c0.539-2.414,1.565-3.748,3.71-4.773C51.183,31.902,74.418,20.747,97.612,9.507c2.034-0.986,3.63-0.929,5.601,0.025
	c23.2,11.228,46.422,22.409,69.673,33.532c2.174,1.04,3.135,2.454,3.669,4.827c5.472,24.308,11.035,48.596,16.744,72.849
	c0.875,3.717,0.206,6.394-2.225,9.398c-15.715,19.418-31.259,38.976-46.726,58.592c-1.767,2.241-3.598,2.927-6.299,2.903
	C125.386,191.521,112.723,191.583,100.06,191.583z M113.039,82.597c-11.19,13.748-19.892,27.542-22.846,44.288
	c-1.166,6.61-1.109,6.677,5.473,6.322c2.193-0.118,2.705-0.928,2.982-2.909c0.55-3.943,1.288-7.878,2.247-11.742
	c3.289-13.255,9.427-25.129,17.801-35.872c1.434-1.84,3.552-3.669,2.332-6.114c-1.048-2.101-3.579-0.95-5.417-0.976
	c-8.319-0.116-16.64,0-24.959-0.09c-1.837-0.02-3.669,0.538-5.439-1.375c-1.504-1.625-3.247-0.604-3.829,1.792
	c-0.9,3.709-2.108,7.347-2.921,11.072c-0.306,1.4-2.383,3.495,0.931,4.297c2.862,0.692,2.709-1.483,3.301-3.156
	c0.832-2.353,0.672-5.568,4.53-5.55C95.489,82.624,103.753,82.597,113.039,82.597z"/>
<path fill="#0B0808" d="M113.039,82.597c-9.286,0-17.551,0.027-25.815-0.012c-3.858-0.018-3.698,3.197-4.53,5.55
	c-0.592,1.674-0.439,3.849-3.301,3.156c-3.314-0.802-1.237-2.897-0.931-4.297c0.814-3.726,2.021-7.363,2.921-11.072
	c0.582-2.396,2.325-3.418,3.829-1.792c1.77,1.913,3.602,1.355,5.439,1.375c8.319,0.09,16.641-0.026,24.959,0.09
	c1.838,0.026,4.368-1.124,5.417,0.976c1.22,2.445-0.898,4.274-2.332,6.114c-8.373,10.742-14.511,22.617-17.801,35.872
	c-0.959,3.864-1.697,7.799-2.247,11.742c-0.276,1.982-0.788,2.791-2.982,2.909c-6.582,0.355-6.639,0.288-5.473-6.322
	C93.147,110.14,101.85,96.345,113.039,82.597z"/>
</svg>
