<?xml version="1.0" encoding="utf-8"?>
<!-- Generator: Adobe Illustrator 17.0.0, SVG Export Plug-In . SVG Version: 6.00 Build 0)  -->
<!DOCTYPE svg PUBLIC "-//W3C//DTD SVG 1.1//EN" "http://www.w3.org/Graphics/SVG/1.1/DTD/svg11.dtd">
<svg version="1.1" id="Capa_1" xmlns="http://www.w3.org/2000/svg" xmlns:xlink="http://www.w3.org/1999/xlink" x="0px" y="0px"
	 width="200px" height="200px" viewBox="0 0 200 200" enable-background="new 0 0 200 200" xml:space="preserve">
<path fill="#0B0808" d="M200,89.262c-2.966,7.591-3.262,15.737-4.821,23.616c-2.527,12.77-4.684,25.616-6.834,38.457
	c-0.442,2.641-1.688,4.443-3.648,6.081c-15.412,12.879-30.817,25.768-46.142,38.751c-2.383,2.019-4.807,2.98-7.959,2.964
	c-20.42-0.1-40.841-0.104-61.261,0.003c-3.155,0.016-5.573-0.922-7.957-2.944c-14.821-12.567-29.683-25.087-44.666-37.46
	c-3.063-2.53-4.931-5.272-5.596-9.259c-3.291-19.749-6.754-39.469-10.271-59.179c-0.555-3.109,0.073-5.677,1.636-8.359
	c10.013-17.182,19.968-34.399,29.798-51.686c1.65-2.902,3.81-4.588,6.897-5.693c17.933-6.424,35.821-12.975,53.709-19.523
	c1.444-0.529,3.223-0.467,4.159-2.054c1.961,0,3.922,0,5.883,0c0.725,1.563,2.388,1.456,3.655,1.922
	c17.861,6.563,35.721,13.128,53.65,19.501c3.442,1.224,5.757,3.091,7.584,6.291C178.437,49.295,189.252,67.789,200,86.32
	C200,87.301,200,88.281,200,89.262z M99.811,193.096c9.308,0,18.618-0.112,27.923,0.065c2.991,0.057,5.232-0.821,7.487-2.734
	c14.688-12.463,29.46-24.828,44.244-37.177c1.704-1.423,2.663-2.926,3.053-5.244c3.165-18.783,6.468-37.544,9.891-56.282
	c0.462-2.53,0.541-4.588-0.832-6.934c-9.88-16.892-19.637-33.856-29.366-50.836c-1.046-1.825-2.394-2.891-4.356-3.596
	c-18.245-6.563-36.473-13.174-54.672-19.862c-2.31-0.849-4.314-0.76-6.6,0.081C78.538,17.21,60.468,23.779,42.361,30.243
	c-2.341,0.836-3.815,2.181-5.012,4.27C27.7,51.36,17.997,68.175,8.258,84.969c-1.03,1.776-1.487,3.417-1.105,5.532
	c3.266,18.103,6.381,36.234,9.625,54.341c0.588,3.281,1.03,6.44,4.111,8.956c14.795,12.079,29.388,24.405,43.953,36.762
	c2.29,1.943,4.599,2.641,7.535,2.594C81.52,193.007,90.666,193.1,99.811,193.096z"/>
<path fill="#3398FD" d="M99.811,193.098c-9.145,0.002-18.291-0.091-27.433,0.056c-2.937,0.047-5.245-0.651-7.535-2.594
	c-14.565-12.357-29.158-24.683-43.953-36.762c-3.081-2.515-3.524-5.675-4.111-8.956c-3.244-18.107-6.359-36.238-9.625-54.341
	c-0.382-2.116,0.075-3.757,1.105-5.532c9.739-16.794,19.441-33.61,29.09-50.455c1.197-2.09,2.671-3.435,5.012-4.27
	c18.107-6.465,36.177-13.034,54.223-19.667c2.287-0.841,4.291-0.929,6.6-0.081c18.199,6.689,36.427,13.299,54.672,19.862
	c1.962,0.706,3.311,1.771,4.356,3.596c9.729,16.98,19.485,33.944,29.366,50.836c1.372,2.346,1.294,4.404,0.832,6.934
	c-3.423,18.738-6.727,37.498-9.891,56.282c-0.391,2.318-1.35,3.821-3.053,5.244c-14.784,12.35-29.556,24.714-44.244,37.177
	c-2.254,1.913-4.495,2.791-7.487,2.734C118.429,192.984,109.119,193.096,99.811,193.098z M109.815,103.776
	c-0.289,10.385-5.183,17.055-13.988,19.786c-3.6,1.116-7.325,1.663-11.075,1.749c-1.956,0.045-2.517,0.755-2.462,2.607
	c0.055,1.847,1.098,2.189,2.547,2.098c2.439-0.153,4.883-0.305,7.31-0.581c10.555-1.202,19.014-5.701,23.719-15.676
	c3.437-7.285,4.139-14.959,2.917-22.919c-2.447-15.946-16.581-23.775-31.359-17.244c-7.617,3.366-11.632,10.569-10.884,19.527
	c0.685,8.199,5.88,14.54,13.886,16.313C97.489,110.999,104.049,109.847,109.815,103.776z"/>
<path fill="#0B0808" d="M109.815,103.776c-5.766,6.071-12.326,7.223-19.388,5.66c-8.006-1.772-13.202-8.114-13.886-16.313
	c-0.748-8.958,3.267-16.161,10.884-19.527c14.778-6.531,28.912,1.299,31.359,17.244c1.222,7.96,0.519,15.634-2.917,22.919
	c-4.706,9.975-13.164,14.474-23.719,15.676c-2.427,0.276-4.871,0.428-7.31,0.581c-1.449,0.091-2.492-0.251-2.547-2.098
	c-0.055-1.852,0.505-2.562,2.462-2.607c3.751-0.086,7.475-0.632,11.075-1.749C104.631,120.832,109.526,114.161,109.815,103.776z
	 M85.146,90.921c0.027,8.161,4.81,13.739,11.871,13.843c7.383,0.109,12.919-5.942,12.909-14.108
	c-0.01-8.617-5.03-14.329-12.542-14.272C89.876,76.441,85.117,82.094,85.146,90.921z"/>
<path fill="#3398FD" d="M85.146,90.921c-0.029-8.827,4.73-14.48,12.238-14.537c7.512-0.057,12.531,5.655,12.542,14.272
	c0.01,8.166-5.527,14.217-12.909,14.108C89.957,104.66,85.173,99.082,85.146,90.921z"/>
</svg>
