<?xml version="1.0" encoding="utf-8"?>
<!-- Generator: Adobe Illustrator 17.0.0, SVG Export Plug-In . SVG Version: 6.00 Build 0)  -->
<!DOCTYPE svg PUBLIC "-//W3C//DTD SVG 1.1//EN" "http://www.w3.org/Graphics/SVG/1.1/DTD/svg11.dtd">
<svg version="1.1" id="Capa_1" xmlns="http://www.w3.org/2000/svg" xmlns:xlink="http://www.w3.org/1999/xlink" x="0px" y="0px"
	 width="200px" height="200px" viewBox="0 0 200 200" enable-background="new 0 0 200 200" xml:space="preserve">
<g>
	<path fill="#0B0808" d="M0,179.171c1.917-0.674,2.278-2.605,3.124-4.064C34.192,121.546,65.216,67.959,96.247,14.377
		c2.86-4.939,4.934-5.025,7.728-0.203c31.567,54.473,63.121,108.955,94.66,163.444c3.019,5.216,2.077,6.876-3.815,6.877
		c-63.077,0.007-126.155,0-189.232,0.022c-1.933,0.001-3.803-0.127-5.588-0.911C0,182.126,0,180.649,0,179.171z M192.503,178.976
		c-0.623-1.223-0.924-1.89-1.288-2.52c-29.631-51.199-59.303-102.375-88.835-153.632c-2.353-4.083-3.095-2.156-4.555,0.371
		c-25.093,43.422-50.226,86.82-75.343,130.228c-4.846,8.376-9.659,16.771-14.716,25.554
		C69.574,178.976,130.774,178.976,192.503,178.976z"/>
	<path fill="#FDCA00" d="M192.503,178.976c-61.729,0-122.929,0-184.738,0c5.057-8.783,9.87-17.178,14.716-25.554
		c25.117-43.408,50.25-86.806,75.343-130.228c1.46-2.526,2.202-4.454,4.555-0.371c29.532,51.257,59.204,102.433,88.835,153.632
		C191.58,177.086,191.881,177.753,192.503,178.976z M106.55,110.219c6.094-3.523,9.951-7.616,7.908-14.618
		c-1.876-6.43-9.157-10.311-17.596-9.416c-7.656,0.812-13.705,6.013-14.36,12.26c-0.145,1.382,0.039,2.286,1.635,2.485
		c1.432,0.179,2.224,0.092,2.909-1.647c2.48-6.303,5.643-8.312,11.615-8.006c4.874,0.25,8.272,3.337,8.599,7.811
		c0.346,4.736-2.653,8.302-7.748,9.05c-1.595,0.234-3.235,0.206-4.855,0.226c-1.765,0.022-1.668,1.241-1.725,2.451
		c-0.061,1.28,0.411,1.895,1.767,1.884c1.767-0.015,3.556-0.055,5.297,0.189c5.479,0.766,8.955,4.146,9.405,8.96
		c0.521,5.575-2.454,10.343-7.563,12.123c-6.47,2.253-11.513-0.315-14.168-7.216c-1.022-2.657-2.413-5.192-5.758-3.647
		c-3.16,1.46-2.587,4.22-1.331,6.821c1.197,2.479,3.19,4.266,5.497,5.606c6.809,3.953,14.06,4.418,21.233,1.474
		c5.798-2.38,9.778-6.707,9.822-13.431C117.179,116.791,113.255,112.773,106.55,110.219z"/>
	<path fill="#0B0808" d="M106.55,110.219c6.705,2.555,10.629,6.572,10.584,13.359c-0.044,6.725-4.024,11.052-9.822,13.431
		c-7.173,2.944-14.424,2.479-21.233-1.474c-2.307-1.339-4.3-3.126-5.497-5.606c-1.256-2.601-1.829-5.361,1.331-6.821
		c3.345-1.545,4.736,0.99,5.758,3.647c2.655,6.901,7.698,9.469,14.168,7.216c5.11-1.779,8.085-6.547,7.563-12.123
		c-0.45-4.814-3.926-8.194-9.405-8.96c-1.741-0.244-3.531-0.203-5.297-0.189c-1.355,0.011-1.827-0.603-1.767-1.884
		c0.057-1.21-0.04-2.429,1.725-2.451c1.62-0.02,3.259,0.008,4.855-0.226c5.094-0.748,8.094-4.314,7.748-9.05
		c-0.327-4.474-3.725-7.562-8.599-7.811c-5.972-0.306-9.135,1.703-11.615,8.006c-0.684,1.74-1.476,1.826-2.909,1.647
		c-1.596-0.199-1.779-1.103-1.635-2.485c0.654-6.248,6.703-11.448,14.36-12.26c8.439-0.895,15.72,2.986,17.596,9.416
		C116.501,102.603,112.643,106.696,106.55,110.219z"/>
</g>
</svg>
